PathFileType	4	(X/Y/Z)	pose_F01_0-97.trc
DataRate	CameraRate	NumFrames	NumMarkers	Units	OrigDataRate	OrigDataStartFrame	OrigNumFrames
60	60	6	21	m	60	84	97
Frame#	Time	CHip			RHip			RKnee			RAnkle			RBigToe			RSmallToe			RHeel			LHip			LKnee			LAnkle			LBigToe			LSmallToe			LHeel			Neck			Nose			RShoulder			RElbow			RWrist			LShoulder			LElbow			LWrist			
		X1	Y1	Z1	X2	Y2	Z2	X3	Y3	Z3	X4	Y4	Z4	X5	Y5	Z5	X6	Y6	Z6	X7	Y7	Z7	X8	Y8	Z8	X9	Y9	Z9	X10	Y10	Z10	X11	Y11	Z11	X12	Y12	Z12	X13	Y13	Z13	X14	Y14	Z14	X15	Y15	Z15	X16	Y16	Z16	X17	Y17	Z17	X18	Y18	Z18	X19	Y19	Z19	X20	Y20	Z20	X21	Y21	Z21	
84	1.4	-0.15474547179340212	1.8380063606069599	-0.5304987177548033	-0.17078528602517765	1.8357631144219588	-0.4725705683553211	-0.16868534869578253	1.729156423429804	-0.5020552899207845	-0.17805484913605074	1.6109484242544037	-0.5056405865884513	-0.17292791645818562	1.5835732471369117	-0.5619460763811273	-0.18636886579246187	1.5903336334646947	-0.5354461391285622				-0.14285342849782132	1.8394266944517932	-0.5869592215086201	-0.15399595450657078	1.7278094676356464	-0.5795097423011993	-0.14522397204029025	1.6201743739553067	-0.5465929014665734	-0.140540355959458	1.597643767332027	-0.6141783571638414	-0.1358758189723584	1.6083600727400167	-0.6201410895759243	-0.1529113905046464	1.614581592164059	-0.5289354646735965	-0.1517811975603536	1.9795651561528564	-0.5489243363509159	-0.15848873842598538	2.04489869167261	-0.6071192489609684	-0.17316818177810356	1.9772994529855215	-0.4730248430443934	-0.1862381818756177	1.8983107780695796	-0.4457852969710185	-0.19246776357842874	1.8331795856868567	-0.44365909139332627	-1.6438921554709567	1.8892926695929928	1.0258827936015555	-0.1191076578936986	1.9059054201720753	-0.6371919158057759	-0.12631877204316533	1.8343215509182018	-0.6542256965001324
85	1.4166666666666667	-0.1620712154515813	1.837010617210565	-0.518041031254686	-0.176846905381186	1.8360011187122325	-0.4656028233827039	-0.16868534869578253	1.729156423429804	-0.5020552899207845	-0.17805484913605074	1.6109484242544037	-0.5056405865884513	-0.17292791645818562	1.5835732471369117	-0.5619460763811273	-0.18636886579246187	1.5903336334646947	-0.5354461391285622				-0.1460495698038765	1.839923232002005	-0.5791268972480925	-0.15808144697654822	1.7262437422358423	-0.5750080237952158	-0.14615535709588853	1.6191498515289706	-0.5411176208578287	-0.13851284270469233	1.5957944310046284	-0.6082215216020933	-0.13400338466153888	1.6024059092992555	-0.618006210606946	-0.15344726309411674	1.6164383710411665	-0.5202700300921691	-0.15708977486705858	1.9776414069982562	-0.5384540182497991	-0.1601682444878908	2.044245525829264	-0.5930989518185792	-0.17920596439418923	1.9768803023539547	-0.46621880447923303	-0.1920394342589342	1.8990998372771557	-0.43907895298138855	-0.1991274068837369	1.83520315103358	-0.44037055368926853	-1.7026954028244827	1.8891032211044467	1.1230492555900466	-0.125576229308886	1.9049227847617727	-0.6300178622225302	-0.1333486570596676	1.8410941208147746	-0.6477744649843947
86	1.4333333333333333	-0.16681748723241072	1.8400086898539585	-0.5169975336975529	-0.18045061126795572	1.8365679674736006	-0.46142818104791306	-0.16868534869578253	1.729156423429804	-0.5020552899207845	-0.17805484913605074	1.6109484242544037	-0.5056405865884513	-0.17292791645818562	1.5835732471369117	-0.5619460763811273	-0.18636886579246187	1.5903336334646947	-0.5354461391285622				-0.15206359727431662	1.8418101845750674	-0.57265042751524	-0.1619609418443794	1.724154978207234	-0.570570140615635	-0.14590589439274662	1.6149322457443998	-0.5412950863968531	-0.13778662533820882	1.5915951355282179	-0.6096029196022554	-0.1340875498989641	1.6026304704391776	-0.6184117702408035	-0.15119420101758108	1.6118112929188664	-0.5232457535107077	-0.16319598598474466	1.9779182030244555	-0.5313977534532648	-0.16883003570508742	2.0408299456502887	-0.5751289983711165	-0.18425647577332965	1.976758951528117	-0.456100236912211	-0.19786935136531253	1.8989234758613667	-0.4235483737208264	-0.20565662091187464	1.83428100159686	-0.4280822050783587	-1.714898199026275	1.8889062783138255	1.1432934024976895	-0.12991784839202614	1.906203636892759	-0.6254018484594831	-0.13370781267858156	1.840347565203989	-0.6476630414477054
87	1.45	-0.17607008355646658	1.8360781700637177	-0.5020213533316957	-0.1905055919890693	1.8339824073637339	-0.44951191617609554	-0.16868534869578253	1.729156423429804	-0.5020552899207845	-0.17805484913605074	1.6109484242544037	-0.5056405865884513	-0.17292791645818562	1.5835732471369117	-0.5619460763811273	-0.18636886579246187	1.5903336334646947	-0.5354461391285622				-0.16059588186646592	1.8402810571828279	-0.5629772292327531	-0.16895985010999764	1.7236711028917422	-0.5701908120253387	-0.14675417613168454	1.6136661293381018	-0.5451554040034399	-0.1392463020714475	1.587049424345385	-0.6161904503557897	-0.1343817508845266	1.5989675381152824	-0.6226801905659124	-0.1489411389410454	1.6071842147965663	-0.5262214769292463	-0.16947544543439158	1.9760889598700686	-0.5243555568704263	-0.17220593090653874	2.0426304225861944	-0.5678160161569437	-0.1910949930794823	1.9759196197686242	-0.4438671914890024	-0.20576925262337745	1.9011647425199634	-0.4237747803440035	-0.2099861481874623	1.8351850905730764	-0.4239168146992472	-1.7142305591949647	1.8889157135035766	1.1427738618673564	-0.13868772725184808	1.9039334604235871	-0.6158414338835587	-0.13769718134542322	1.838247079859564	-0.6393332520384093
88	1.4666666666666666	-0.1853495233779388	1.8355241502907929	-0.49561840011422864	-0.1985668655411509	1.8317500191273328	-0.44011437143293325	-0.16868534869578253	1.729156423429804	-0.5020552899207845	-0.17805484913605074	1.6109484242544037	-0.5056405865884513	-0.17292791645818562	1.5835732471369117	-0.5619460763811273	-0.18636886579246187	1.5903336334646947	-0.5354461391285622				-0.1720940632068502	1.8380127569356608	-0.5543681921047284	-0.17595875837561586	1.7231872275762505	-0.5698114834350425	-0.15574491914126495	1.610952701460025	-0.5508283835767883	-0.14982099781559297	1.5841590148343205	-0.6211081566585153	-0.14612198533091023	1.5954414537288037	-0.6277048726224429	-0.14668807686450974	1.6025571366742661	-0.5291972003477848	-0.1796579650943724	1.976089160795393	-0.5129736411563744	-0.1824413861703067	2.0423405101168517	-0.5565358999557682	-0.20187661155397763	1.9761061829408475	-0.435886848107418	-0.21764400060743966	1.897267387677595	-0.41864359610931284	-0.22340032015552436	1.8333393849081614	-0.4258308559117228	-1.7129776301861903	1.8891286060213786	1.1412122121417558	-0.1472628071491573	1.9031820392791812	-0.6061780556817592	-0.14622943900379634	1.836766840906118	-0.6297048963259443
89	1.4833333333333334	-0.195459575882684	1.8343331857215033	-0.4842017561503348	-0.20833445545953913	1.8302795710083208	-0.4285793696132923	-0.16868534869578253	1.729156423429804	-0.5020552899207845	-0.17805484913605074	1.6109484242544037	-0.5056405865884513	-0.17292791645818562	1.5835732471369117	-0.5619460763811273	-0.18636886579246187	1.5903336334646947	-0.5354461391285622				-0.17945244385735742	1.8361674807014967	-0.5503168016635945	-0.18295766664123408	1.7227033522607587	-0.5694321548447462	-0.16473566215084534	1.608239273581948	-0.5565013631501368	-0.1603956935597384	1.581268605323256	-0.6260258629612407	-0.1578622197772938	1.591915369342325	-0.6327295546789735	-0.14443501478797408	1.597930058551966	-0.5321729237663234	-0.18584543561558503	1.9753279186366908	-0.5062056613714816	-0.18865593294676247	2.0423971072138793	-0.5497274989051293	-0.20973485562588287	1.9755031232517863	-0.42695527681801027	-0.2255891274300044	1.8951015346514608	-0.40965516789165624	-0.23398760852444894	1.8297638751282643	-0.42319005559301165	-1.6998489714270955	1.889416482899203	1.1201586410335953	-0.16005863345469643	1.9020302303458017	-0.592164187949845	-0.15548528912689785	1.8369887503840197	-0.6238144380061436
